<?xml version="1.0" standalone="no"?>
<!DOCTYPE svg PUBLIC "-//W3C//DTD SVG 20010904//EN"
 "http://www.w3.org/TR/2001/REC-SVG-20010904/DTD/svg10.dtd">
<svg version="1.0" xmlns="http://www.w3.org/2000/svg"
 width="256.000000pt" height="256.000000pt" viewBox="0 0 256.000000 256.000000"
 preserveAspectRatio="xMidYMid meet">
<metadata>
Created by potrace 1.14, written by Peter Selinger 2001-2017
</metadata>
<g transform="translate(0.000000,256.000000) scale(0.100000,-0.100000)"
fill="#000000" stroke="none">
<path d="M1238 2321 c-7 -98 -60 -202 -178 -350 -352 -444 -530 -803 -530
-1073 0 -164 73 -358 184 -484 70 -81 264 -197 366 -219 l35 -8 -35 39 c-90
100 -115 179 -107 348 7 186 32 251 244 656 147 279 195 431 195 620 0 139
-18 217 -92 389 -72 167 -76 171 -82 82z m44 -298 c42 -50 28 -78 -74 -146
-89 -61 -115 -89 -124 -137 -6 -27 -4 -30 19 -30 26 0 63 31 107 88 50 65 130
46 130 -31 0 -63 -93 -114 -228 -124 -92 -7 -129 -30 -156 -96 -24 -58 -15
-80 34 -85 49 -5 86 15 125 69 47 66 76 79 113 52 19 -14 28 -31 30 -56 4 -46
-18 -69 -96 -97 -33 -12 -73 -35 -88 -51 -25 -27 -26 -29 -8 -35 38 -14 64
-46 64 -81 0 -46 -13 -68 -49 -83 -42 -17 -74 -7 -119 39 -42 43 -115 72 -133
54 -14 -14 19 -90 52 -119 13 -11 43 -26 65 -32 23 -7 46 -18 52 -25 40 -48 8
-117 -54 -117 -28 0 -45 10 -83 45 -40 38 -51 56 -62 103 -8 31 -18 57 -24 57
-16 0 -34 -66 -34 -128 -1 -70 15 -111 63 -156 29 -28 36 -42 36 -72 0 -111
-149 -120 -180 -11 -27 100 -4 302 51 442 43 108 89 181 255 406 91 123 161
230 185 280 21 45 44 84 51 87 28 11 66 6 80 -10z"/>
<path d="M864 1419 c-12 -6 -27 -22 -33 -35 -16 -37 15 -48 116 -41 70 4 89 9
109 28 13 12 24 26 24 29 0 4 -30 10 -67 14 -38 3 -81 8 -98 11 -16 2 -40 0
-51 -6z"/>
<path d="M1601 1828 c-1 -39 -17 -76 -51 -118 -16 -20 -35 -58 -42 -83 -11
-44 -10 -51 22 -129 57 -138 44 -185 -67 -247 -73 -40 -85 -62 -89 -160 -2
-54 -8 -81 -22 -100 -29 -40 -79 -69 -128 -77 -56 -8 -99 -43 -108 -86 -4 -19
0 -63 10 -104 22 -92 14 -128 -41 -193 -25 -29 -48 -64 -51 -77 -10 -39 3 -93
31 -136 24 -36 143 -133 152 -124 3 2 -2 24 -11 49 -49 145 -19 298 91 464 21
32 87 107 146 167 94 95 114 121 153 202 101 207 109 459 25 722 -14 42 -19
50 -20 30z"/>
<path d="M1728 1363 c-5 -121 -9 -150 -38 -236 -41 -122 -88 -196 -199 -312
-100 -104 -146 -165 -190 -252 -58 -115 -75 -237 -50 -339 15 -58 37 -68 149
-61 279 16 537 237 610 523 38 148 21 337 -43 478 l-24 51 -7 -80 c-8 -100
-39 -225 -77 -317 -33 -80 -99 -202 -105 -195 -2 2 2 35 10 74 29 134 39 320
27 469 -10 112 -44 320 -56 332 -1 1 -4 -59 -7 -135z m0 -805 c-15 -44 -231
-258 -334 -330 -107 -76 -117 -74 -16 2 113 85 219 186 292 280 35 44 65 80
66 80 2 0 -2 -15 -8 -32z"/>
</g>
</svg>
